<?xml version="1.0" encoding="utf-8"?>
<!-- Generator: Adobe Illustrator 26.0.0, SVG Export Plug-In . SVG Version: 6.00 Build 0)  -->
<svg version="1.1" id="Layer_1" xmlns="http://www.w3.org/2000/svg" xmlns:xlink="http://www.w3.org/1999/xlink" x="0px" y="0px"
	 viewBox="0 0 512 512" style="enable-background:new 0 0 512 512;" xml:space="preserve">
<g>
	<path d="M464,32H48C21.5,32,0,53.5,0,80v352c0,26.5,21.5,48,48,48h416c26.5,0,48-21.5,48-48V80C512,53.5,490.5,32,464,32z M288,448h-64
		c-8.8,0-16-7.2-16-16v-48h96v48C304,440.8,296.8,448,288,448z M416,320h-96V192h96V320z M192,320h-96V192h96V320z M416,128h-96V96h64
		c8.8,0,16,7.2,16,16V128z M288,128h-64V96h64V128z M192,128H96V96h64c8.8,0,16,7.2,16,16V128z"/>
</g>
</svg>